<mxfile host="app.diagrams.net" modified="2022-10-28T17:18:51.305Z" agent="5.0 (Macintosh; Intel Mac OS X 10_15_7) AppleWebKit/537.36 (KHTML, like Gecko) Chrome/106.0.0.0 Safari/537.36" etag="-SgUmnrCY02ECTl-2HNk" version="20.5.1" type="github">
  <diagram name="Page-1" id="9f46799a-70d6-7492-0946-bef42562c5a5">
    <mxGraphModel dx="1892" dy="1292" grid="1" gridSize="8" guides="1" tooltips="1" connect="1" arrows="1" fold="1" page="1" pageScale="1" pageWidth="9000" pageHeight="3000" background="none" math="0" shadow="1">
      <root>
        <mxCell id="0" />
        <mxCell id="1" parent="0" />
        <mxCell id="VR0u80_VKsv71wtrGtez-1" value="users" style="swimlane;html=1;fontStyle=1;align=center;verticalAlign=top;childLayout=stackLayout;horizontal=1;startSize=26;horizontalStack=0;resizeParent=1;resizeLast=0;collapsible=1;marginBottom=0;swimlaneFillColor=#ffffff;rounded=0;shadow=0;comic=0;labelBackgroundColor=none;strokeWidth=1;fillColor=none;fontFamily=Verdana;fontSize=12" parent="1" vertex="1">
          <mxGeometry x="256" width="210" height="290" as="geometry" />
        </mxCell>
        <mxCell id="VR0u80_VKsv71wtrGtez-2" value="id: BIGINT (20)" style="text;html=1;strokeColor=none;fillColor=none;align=left;verticalAlign=top;spacingLeft=4;spacingRight=4;whiteSpace=wrap;overflow=hidden;rotatable=0;points=[[0,0.5],[1,0.5]];portConstraint=eastwest;" parent="VR0u80_VKsv71wtrGtez-1" vertex="1">
          <mxGeometry y="26" width="210" height="26" as="geometry" />
        </mxCell>
        <mxCell id="VR0u80_VKsv71wtrGtez-3" value="login: VARCHAR(60)" style="text;html=1;strokeColor=none;fillColor=none;align=left;verticalAlign=top;spacingLeft=4;spacingRight=4;whiteSpace=wrap;overflow=hidden;rotatable=0;points=[[0,0.5],[1,0.5]];portConstraint=eastwest;" parent="VR0u80_VKsv71wtrGtez-1" vertex="1">
          <mxGeometry y="52" width="210" height="26" as="geometry" />
        </mxCell>
        <mxCell id="VR0u80_VKsv71wtrGtez-4" value="password: VARCHAR(64)" style="text;html=1;strokeColor=none;fillColor=none;align=left;verticalAlign=top;spacingLeft=4;spacingRight=4;whiteSpace=wrap;overflow=hidden;rotatable=0;points=[[0,0.5],[1,0.5]];portConstraint=eastwest;" parent="VR0u80_VKsv71wtrGtez-1" vertex="1">
          <mxGeometry y="78" width="210" height="26" as="geometry" />
        </mxCell>
        <mxCell id="VR0u80_VKsv71wtrGtez-5" value="email: VARCHAR(50)" style="text;html=1;strokeColor=none;fillColor=none;align=left;verticalAlign=top;spacingLeft=4;spacingRight=4;whiteSpace=wrap;overflow=hidden;rotatable=0;points=[[0,0.5],[1,0.5]];portConstraint=eastwest;" parent="VR0u80_VKsv71wtrGtez-1" vertex="1">
          <mxGeometry y="104" width="210" height="26" as="geometry" />
        </mxCell>
        <mxCell id="VR0u80_VKsv71wtrGtez-22" value="phone: VARCHAR (20)" style="text;html=1;strokeColor=none;fillColor=none;align=left;verticalAlign=top;spacingLeft=4;spacingRight=4;whiteSpace=wrap;overflow=hidden;rotatable=0;points=[[0,0.5],[1,0.5]];portConstraint=eastwest;" parent="VR0u80_VKsv71wtrGtez-1" vertex="1">
          <mxGeometry y="130" width="210" height="26" as="geometry" />
        </mxCell>
        <mxCell id="VR0u80_VKsv71wtrGtez-24" value="document_type_id: VARCHAR(12)" style="text;html=1;strokeColor=none;fillColor=none;align=left;verticalAlign=top;spacingLeft=4;spacingRight=4;whiteSpace=wrap;overflow=hidden;rotatable=0;points=[[0,0.5],[1,0.5]];portConstraint=eastwest;" parent="VR0u80_VKsv71wtrGtez-1" vertex="1">
          <mxGeometry y="156" width="210" height="26" as="geometry" />
        </mxCell>
        <mxCell id="VR0u80_VKsv71wtrGtez-23" value="document_id: BIGINT(20)" style="text;html=1;strokeColor=none;fillColor=none;align=left;verticalAlign=top;spacingLeft=4;spacingRight=4;whiteSpace=wrap;overflow=hidden;rotatable=0;points=[[0,0.5],[1,0.5]];portConstraint=eastwest;" parent="VR0u80_VKsv71wtrGtez-1" vertex="1">
          <mxGeometry y="182" width="210" height="26" as="geometry" />
        </mxCell>
        <mxCell id="VR0u80_VKsv71wtrGtez-26" value="display_name: VARCHAR(250)" style="text;html=1;strokeColor=none;fillColor=none;align=left;verticalAlign=top;spacingLeft=4;spacingRight=4;whiteSpace=wrap;overflow=hidden;rotatable=0;points=[[0,0.5],[1,0.5]];portConstraint=eastwest;" parent="VR0u80_VKsv71wtrGtez-1" vertex="1">
          <mxGeometry y="208" width="210" height="26" as="geometry" />
        </mxCell>
        <mxCell id="VR0u80_VKsv71wtrGtez-6" value="registered: DATETIME" style="text;html=1;strokeColor=none;fillColor=none;align=left;verticalAlign=top;spacingLeft=4;spacingRight=4;whiteSpace=wrap;overflow=hidden;rotatable=0;points=[[0,0.5],[1,0.5]];portConstraint=eastwest;" parent="VR0u80_VKsv71wtrGtez-1" vertex="1">
          <mxGeometry y="234" width="210" height="26" as="geometry" />
        </mxCell>
        <mxCell id="VR0u80_VKsv71wtrGtez-7" value="modified: DATETIME" style="text;html=1;strokeColor=none;fillColor=none;align=left;verticalAlign=top;spacingLeft=4;spacingRight=4;whiteSpace=wrap;overflow=hidden;rotatable=0;points=[[0,0.5],[1,0.5]];portConstraint=eastwest;" parent="VR0u80_VKsv71wtrGtez-1" vertex="1">
          <mxGeometry y="260" width="210" height="26" as="geometry" />
        </mxCell>
        <mxCell id="VR0u80_VKsv71wtrGtez-37" value="customer" style="swimlane;html=1;fontStyle=1;align=center;verticalAlign=top;childLayout=stackLayout;horizontal=1;startSize=26;horizontalStack=0;resizeParent=1;resizeLast=0;collapsible=1;marginBottom=0;swimlaneFillColor=#ffffff;rounded=0;shadow=0;comic=0;labelBackgroundColor=none;strokeWidth=1;fillColor=none;fontFamily=Verdana;fontSize=12" parent="1" vertex="1">
          <mxGeometry x="30" y="400" width="220" height="676" as="geometry" />
        </mxCell>
        <mxCell id="VR0u80_VKsv71wtrGtez-38" value="id: BIGINT (20)" style="text;html=1;strokeColor=none;fillColor=none;align=left;verticalAlign=top;spacingLeft=4;spacingRight=4;whiteSpace=wrap;overflow=hidden;rotatable=0;points=[[0,0.5],[1,0.5]];portConstraint=eastwest;" parent="VR0u80_VKsv71wtrGtez-37" vertex="1">
          <mxGeometry y="26" width="220" height="26" as="geometry" />
        </mxCell>
        <mxCell id="VR0u80_VKsv71wtrGtez-65" value="user_id: BIGINT (20)" style="text;html=1;strokeColor=none;fillColor=none;align=left;verticalAlign=top;spacingLeft=4;spacingRight=4;whiteSpace=wrap;overflow=hidden;rotatable=0;points=[[0,0.5],[1,0.5]];portConstraint=eastwest;" parent="VR0u80_VKsv71wtrGtez-37" vertex="1">
          <mxGeometry y="52" width="220" height="26" as="geometry" />
        </mxCell>
        <mxCell id="VR0u80_VKsv71wtrGtez-41" value="email: VARCHAR(50)" style="text;html=1;strokeColor=none;fillColor=none;align=left;verticalAlign=top;spacingLeft=4;spacingRight=4;whiteSpace=wrap;overflow=hidden;rotatable=0;points=[[0,0.5],[1,0.5]];portConstraint=eastwest;" parent="VR0u80_VKsv71wtrGtez-37" vertex="1">
          <mxGeometry y="78" width="220" height="26" as="geometry" />
        </mxCell>
        <mxCell id="VR0u80_VKsv71wtrGtez-42" value="phone: VARCHAR (20)" style="text;html=1;strokeColor=none;fillColor=none;align=left;verticalAlign=top;spacingLeft=4;spacingRight=4;whiteSpace=wrap;overflow=hidden;rotatable=0;points=[[0,0.5],[1,0.5]];portConstraint=eastwest;" parent="VR0u80_VKsv71wtrGtez-37" vertex="1">
          <mxGeometry y="104" width="220" height="26" as="geometry" />
        </mxCell>
        <mxCell id="VR0u80_VKsv71wtrGtez-43" value="document_type_id: VARCHAR(12)" style="text;html=1;strokeColor=none;fillColor=none;align=left;verticalAlign=top;spacingLeft=4;spacingRight=4;whiteSpace=wrap;overflow=hidden;rotatable=0;points=[[0,0.5],[1,0.5]];portConstraint=eastwest;" parent="VR0u80_VKsv71wtrGtez-37" vertex="1">
          <mxGeometry y="130" width="220" height="26" as="geometry" />
        </mxCell>
        <mxCell id="VR0u80_VKsv71wtrGtez-44" value="document_id: BIGINT(20)" style="text;html=1;strokeColor=none;fillColor=none;align=left;verticalAlign=top;spacingLeft=4;spacingRight=4;whiteSpace=wrap;overflow=hidden;rotatable=0;points=[[0,0.5],[1,0.5]];portConstraint=eastwest;" parent="VR0u80_VKsv71wtrGtez-37" vertex="1">
          <mxGeometry y="156" width="220" height="26" as="geometry" />
        </mxCell>
        <mxCell id="VR0u80_VKsv71wtrGtez-46" value="registered: DATETIME" style="text;html=1;strokeColor=none;fillColor=none;align=left;verticalAlign=top;spacingLeft=4;spacingRight=4;whiteSpace=wrap;overflow=hidden;rotatable=0;points=[[0,0.5],[1,0.5]];portConstraint=eastwest;" parent="VR0u80_VKsv71wtrGtez-37" vertex="1">
          <mxGeometry y="182" width="220" height="26" as="geometry" />
        </mxCell>
        <mxCell id="VR0u80_VKsv71wtrGtez-47" value="modified: DATETIME" style="text;html=1;strokeColor=none;fillColor=none;align=left;verticalAlign=top;spacingLeft=4;spacingRight=4;whiteSpace=wrap;overflow=hidden;rotatable=0;points=[[0,0.5],[1,0.5]];portConstraint=eastwest;" parent="VR0u80_VKsv71wtrGtez-37" vertex="1">
          <mxGeometry y="208" width="220" height="26" as="geometry" />
        </mxCell>
        <mxCell id="VR0u80_VKsv71wtrGtez-49" value="first_name: VARCHAR(255)" style="text;html=1;strokeColor=none;fillColor=none;align=left;verticalAlign=top;spacingLeft=4;spacingRight=4;whiteSpace=wrap;overflow=hidden;rotatable=0;points=[[0,0.5],[1,0.5]];portConstraint=eastwest;" parent="VR0u80_VKsv71wtrGtez-37" vertex="1">
          <mxGeometry y="234" width="220" height="26" as="geometry" />
        </mxCell>
        <mxCell id="VR0u80_VKsv71wtrGtez-50" value="last_name: VARCHAR(255)" style="text;html=1;strokeColor=none;fillColor=none;align=left;verticalAlign=top;spacingLeft=4;spacingRight=4;whiteSpace=wrap;overflow=hidden;rotatable=0;points=[[0,0.5],[1,0.5]];portConstraint=eastwest;" parent="VR0u80_VKsv71wtrGtez-37" vertex="1">
          <mxGeometry y="260" width="220" height="26" as="geometry" />
        </mxCell>
        <mxCell id="VR0u80_VKsv71wtrGtez-51" value="company: VARCHAR(255)" style="text;html=1;strokeColor=none;fillColor=none;align=left;verticalAlign=top;spacingLeft=4;spacingRight=4;whiteSpace=wrap;overflow=hidden;rotatable=0;points=[[0,0.5],[1,0.5]];portConstraint=eastwest;" parent="VR0u80_VKsv71wtrGtez-37" vertex="1">
          <mxGeometry y="286" width="220" height="26" as="geometry" />
        </mxCell>
        <mxCell id="VR0u80_VKsv71wtrGtez-52" value="address_1: VARCHAR(1024)" style="text;html=1;strokeColor=none;fillColor=none;align=left;verticalAlign=top;spacingLeft=4;spacingRight=4;whiteSpace=wrap;overflow=hidden;rotatable=0;points=[[0,0.5],[1,0.5]];portConstraint=eastwest;" parent="VR0u80_VKsv71wtrGtez-37" vertex="1">
          <mxGeometry y="312" width="220" height="26" as="geometry" />
        </mxCell>
        <mxCell id="VR0u80_VKsv71wtrGtez-53" value="address_2: VARCHAR(1024)" style="text;html=1;strokeColor=none;fillColor=none;align=left;verticalAlign=top;spacingLeft=4;spacingRight=4;whiteSpace=wrap;overflow=hidden;rotatable=0;points=[[0,0.5],[1,0.5]];portConstraint=eastwest;" parent="VR0u80_VKsv71wtrGtez-37" vertex="1">
          <mxGeometry y="338" width="220" height="26" as="geometry" />
        </mxCell>
        <mxCell id="VR0u80_VKsv71wtrGtez-54" value="city: VARCHAR(100)" style="text;html=1;strokeColor=none;fillColor=none;align=left;verticalAlign=top;spacingLeft=4;spacingRight=4;whiteSpace=wrap;overflow=hidden;rotatable=0;points=[[0,0.5],[1,0.5]];portConstraint=eastwest;" parent="VR0u80_VKsv71wtrGtez-37" vertex="1">
          <mxGeometry y="364" width="220" height="26" as="geometry" />
        </mxCell>
        <mxCell id="VR0u80_VKsv71wtrGtez-55" value="state: VARCHAR(100)" style="text;html=1;strokeColor=none;fillColor=none;align=left;verticalAlign=top;spacingLeft=4;spacingRight=4;whiteSpace=wrap;overflow=hidden;rotatable=0;points=[[0,0.5],[1,0.5]];portConstraint=eastwest;" parent="VR0u80_VKsv71wtrGtez-37" vertex="1">
          <mxGeometry y="390" width="220" height="26" as="geometry" />
        </mxCell>
        <mxCell id="VR0u80_VKsv71wtrGtez-63" value="postcode: VARCHAR(100)" style="text;html=1;strokeColor=none;fillColor=none;align=left;verticalAlign=top;spacingLeft=4;spacingRight=4;whiteSpace=wrap;overflow=hidden;rotatable=0;points=[[0,0.5],[1,0.5]];portConstraint=eastwest;" parent="VR0u80_VKsv71wtrGtez-37" vertex="1">
          <mxGeometry y="416" width="220" height="26" as="geometry" />
        </mxCell>
        <mxCell id="VR0u80_VKsv71wtrGtez-56" value="country: CHAR(2)" style="text;html=1;strokeColor=none;fillColor=none;align=left;verticalAlign=top;spacingLeft=4;spacingRight=4;whiteSpace=wrap;overflow=hidden;rotatable=0;points=[[0,0.5],[1,0.5]];portConstraint=eastwest;" parent="VR0u80_VKsv71wtrGtez-37" vertex="1">
          <mxGeometry y="442" width="220" height="26" as="geometry" />
        </mxCell>
        <mxCell id="VR0u80_VKsv71wtrGtez-58" value="shipping_address_1: VARCHAR(1024)" style="text;html=1;strokeColor=none;fillColor=none;align=left;verticalAlign=top;spacingLeft=4;spacingRight=4;whiteSpace=wrap;overflow=hidden;rotatable=0;points=[[0,0.5],[1,0.5]];portConstraint=eastwest;" parent="VR0u80_VKsv71wtrGtez-37" vertex="1">
          <mxGeometry y="468" width="220" height="26" as="geometry" />
        </mxCell>
        <mxCell id="VR0u80_VKsv71wtrGtez-59" value="shipping_address_2: VARCHAR(1024)" style="text;html=1;strokeColor=none;fillColor=none;align=left;verticalAlign=top;spacingLeft=4;spacingRight=4;whiteSpace=wrap;overflow=hidden;rotatable=0;points=[[0,0.5],[1,0.5]];portConstraint=eastwest;" parent="VR0u80_VKsv71wtrGtez-37" vertex="1">
          <mxGeometry y="494" width="220" height="26" as="geometry" />
        </mxCell>
        <mxCell id="VR0u80_VKsv71wtrGtez-60" value="shipping_city: VARCHAR(100)" style="text;html=1;strokeColor=none;fillColor=none;align=left;verticalAlign=top;spacingLeft=4;spacingRight=4;whiteSpace=wrap;overflow=hidden;rotatable=0;points=[[0,0.5],[1,0.5]];portConstraint=eastwest;" parent="VR0u80_VKsv71wtrGtez-37" vertex="1">
          <mxGeometry y="520" width="220" height="26" as="geometry" />
        </mxCell>
        <mxCell id="VR0u80_VKsv71wtrGtez-61" value="shipping_state: VARCHAR(100)" style="text;html=1;strokeColor=none;fillColor=none;align=left;verticalAlign=top;spacingLeft=4;spacingRight=4;whiteSpace=wrap;overflow=hidden;rotatable=0;points=[[0,0.5],[1,0.5]];portConstraint=eastwest;" parent="VR0u80_VKsv71wtrGtez-37" vertex="1">
          <mxGeometry y="546" width="220" height="26" as="geometry" />
        </mxCell>
        <mxCell id="VR0u80_VKsv71wtrGtez-64" value="shipping_postcode: VARCHAR(100)" style="text;html=1;strokeColor=none;fillColor=none;align=left;verticalAlign=top;spacingLeft=4;spacingRight=4;whiteSpace=wrap;overflow=hidden;rotatable=0;points=[[0,0.5],[1,0.5]];portConstraint=eastwest;" parent="VR0u80_VKsv71wtrGtez-37" vertex="1">
          <mxGeometry y="572" width="220" height="26" as="geometry" />
        </mxCell>
        <mxCell id="VR0u80_VKsv71wtrGtez-62" value="shipping_country: CHAR(2)" style="text;html=1;strokeColor=none;fillColor=none;align=left;verticalAlign=top;spacingLeft=4;spacingRight=4;whiteSpace=wrap;overflow=hidden;rotatable=0;points=[[0,0.5],[1,0.5]];portConstraint=eastwest;" parent="VR0u80_VKsv71wtrGtez-37" vertex="1">
          <mxGeometry y="598" width="220" height="26" as="geometry" />
        </mxCell>
        <mxCell id="VR0u80_VKsv71wtrGtez-82" value="role: VARCHAR (255)" style="text;html=1;strokeColor=none;fillColor=none;align=left;verticalAlign=top;spacingLeft=4;spacingRight=4;whiteSpace=wrap;overflow=hidden;rotatable=0;points=[[0,0.5],[1,0.5]];portConstraint=eastwest;" parent="VR0u80_VKsv71wtrGtez-37" vertex="1">
          <mxGeometry y="624" width="220" height="26" as="geometry" />
        </mxCell>
        <mxCell id="VR0u80_VKsv71wtrGtez-135" value="photo: VARCHAR (255)" style="text;html=1;strokeColor=none;fillColor=none;align=left;verticalAlign=top;spacingLeft=4;spacingRight=4;whiteSpace=wrap;overflow=hidden;rotatable=0;points=[[0,0.5],[1,0.5]];portConstraint=eastwest;" parent="VR0u80_VKsv71wtrGtez-37" vertex="1">
          <mxGeometry y="650" width="220" height="26" as="geometry" />
        </mxCell>
        <mxCell id="VR0u80_VKsv71wtrGtez-108" value="employees" style="swimlane;html=1;fontStyle=1;align=center;verticalAlign=top;childLayout=stackLayout;horizontal=1;startSize=26;horizontalStack=0;resizeParent=1;resizeLast=0;collapsible=1;marginBottom=0;swimlaneFillColor=#ffffff;rounded=0;shadow=0;comic=0;labelBackgroundColor=none;strokeWidth=1;fillColor=none;fontFamily=Verdana;fontSize=12" parent="1" vertex="1">
          <mxGeometry x="280" y="400" width="220" height="552" as="geometry" />
        </mxCell>
        <mxCell id="VR0u80_VKsv71wtrGtez-109" value="id: BIGINT (20)" style="text;html=1;strokeColor=none;fillColor=none;align=left;verticalAlign=top;spacingLeft=4;spacingRight=4;whiteSpace=wrap;overflow=hidden;rotatable=0;points=[[0,0.5],[1,0.5]];portConstraint=eastwest;" parent="VR0u80_VKsv71wtrGtez-108" vertex="1">
          <mxGeometry y="26" width="220" height="26" as="geometry" />
        </mxCell>
        <mxCell id="VR0u80_VKsv71wtrGtez-110" value="user_id: BIGINT (20)" style="text;html=1;strokeColor=none;fillColor=none;align=left;verticalAlign=top;spacingLeft=4;spacingRight=4;whiteSpace=wrap;overflow=hidden;rotatable=0;points=[[0,0.5],[1,0.5]];portConstraint=eastwest;" parent="VR0u80_VKsv71wtrGtez-108" vertex="1">
          <mxGeometry y="52" width="220" height="26" as="geometry" />
        </mxCell>
        <mxCell id="VR0u80_VKsv71wtrGtez-111" value="email: VARCHAR(50)" style="text;html=1;strokeColor=none;fillColor=none;align=left;verticalAlign=top;spacingLeft=4;spacingRight=4;whiteSpace=wrap;overflow=hidden;rotatable=0;points=[[0,0.5],[1,0.5]];portConstraint=eastwest;" parent="VR0u80_VKsv71wtrGtez-108" vertex="1">
          <mxGeometry y="78" width="220" height="26" as="geometry" />
        </mxCell>
        <mxCell id="VR0u80_VKsv71wtrGtez-112" value="phone: VARCHAR (20)" style="text;html=1;strokeColor=none;fillColor=none;align=left;verticalAlign=top;spacingLeft=4;spacingRight=4;whiteSpace=wrap;overflow=hidden;rotatable=0;points=[[0,0.5],[1,0.5]];portConstraint=eastwest;" parent="VR0u80_VKsv71wtrGtez-108" vertex="1">
          <mxGeometry y="104" width="220" height="26" as="geometry" />
        </mxCell>
        <mxCell id="VR0u80_VKsv71wtrGtez-113" value="document_type_id: VARCHAR(12)" style="text;html=1;strokeColor=none;fillColor=none;align=left;verticalAlign=top;spacingLeft=4;spacingRight=4;whiteSpace=wrap;overflow=hidden;rotatable=0;points=[[0,0.5],[1,0.5]];portConstraint=eastwest;" parent="VR0u80_VKsv71wtrGtez-108" vertex="1">
          <mxGeometry y="130" width="220" height="26" as="geometry" />
        </mxCell>
        <mxCell id="VR0u80_VKsv71wtrGtez-114" value="document_id: BIGINT(20)" style="text;html=1;strokeColor=none;fillColor=none;align=left;verticalAlign=top;spacingLeft=4;spacingRight=4;whiteSpace=wrap;overflow=hidden;rotatable=0;points=[[0,0.5],[1,0.5]];portConstraint=eastwest;" parent="VR0u80_VKsv71wtrGtez-108" vertex="1">
          <mxGeometry y="156" width="220" height="26" as="geometry" />
        </mxCell>
        <mxCell id="VR0u80_VKsv71wtrGtez-115" value="registered: DATETIME" style="text;html=1;strokeColor=none;fillColor=none;align=left;verticalAlign=top;spacingLeft=4;spacingRight=4;whiteSpace=wrap;overflow=hidden;rotatable=0;points=[[0,0.5],[1,0.5]];portConstraint=eastwest;" parent="VR0u80_VKsv71wtrGtez-108" vertex="1">
          <mxGeometry y="182" width="220" height="26" as="geometry" />
        </mxCell>
        <mxCell id="VR0u80_VKsv71wtrGtez-116" value="modified: DATETIME" style="text;html=1;strokeColor=none;fillColor=none;align=left;verticalAlign=top;spacingLeft=4;spacingRight=4;whiteSpace=wrap;overflow=hidden;rotatable=0;points=[[0,0.5],[1,0.5]];portConstraint=eastwest;" parent="VR0u80_VKsv71wtrGtez-108" vertex="1">
          <mxGeometry y="208" width="220" height="26" as="geometry" />
        </mxCell>
        <mxCell id="VR0u80_VKsv71wtrGtez-117" value="first_name: VARCHAR(255)" style="text;html=1;strokeColor=none;fillColor=none;align=left;verticalAlign=top;spacingLeft=4;spacingRight=4;whiteSpace=wrap;overflow=hidden;rotatable=0;points=[[0,0.5],[1,0.5]];portConstraint=eastwest;" parent="VR0u80_VKsv71wtrGtez-108" vertex="1">
          <mxGeometry y="234" width="220" height="26" as="geometry" />
        </mxCell>
        <mxCell id="VR0u80_VKsv71wtrGtez-118" value="last_name: VARCHAR(255)" style="text;html=1;strokeColor=none;fillColor=none;align=left;verticalAlign=top;spacingLeft=4;spacingRight=4;whiteSpace=wrap;overflow=hidden;rotatable=0;points=[[0,0.5],[1,0.5]];portConstraint=eastwest;" parent="VR0u80_VKsv71wtrGtez-108" vertex="1">
          <mxGeometry y="260" width="220" height="26" as="geometry" />
        </mxCell>
        <mxCell id="VR0u80_VKsv71wtrGtez-120" value="address_1: VARCHAR(1024)" style="text;html=1;strokeColor=none;fillColor=none;align=left;verticalAlign=top;spacingLeft=4;spacingRight=4;whiteSpace=wrap;overflow=hidden;rotatable=0;points=[[0,0.5],[1,0.5]];portConstraint=eastwest;" parent="VR0u80_VKsv71wtrGtez-108" vertex="1">
          <mxGeometry y="286" width="220" height="26" as="geometry" />
        </mxCell>
        <mxCell id="VR0u80_VKsv71wtrGtez-121" value="address_2: VARCHAR(1024)" style="text;html=1;strokeColor=none;fillColor=none;align=left;verticalAlign=top;spacingLeft=4;spacingRight=4;whiteSpace=wrap;overflow=hidden;rotatable=0;points=[[0,0.5],[1,0.5]];portConstraint=eastwest;" parent="VR0u80_VKsv71wtrGtez-108" vertex="1">
          <mxGeometry y="312" width="220" height="26" as="geometry" />
        </mxCell>
        <mxCell id="VR0u80_VKsv71wtrGtez-122" value="city: VARCHAR(100)" style="text;html=1;strokeColor=none;fillColor=none;align=left;verticalAlign=top;spacingLeft=4;spacingRight=4;whiteSpace=wrap;overflow=hidden;rotatable=0;points=[[0,0.5],[1,0.5]];portConstraint=eastwest;" parent="VR0u80_VKsv71wtrGtez-108" vertex="1">
          <mxGeometry y="338" width="220" height="26" as="geometry" />
        </mxCell>
        <mxCell id="VR0u80_VKsv71wtrGtez-123" value="state: VARCHAR(100)" style="text;html=1;strokeColor=none;fillColor=none;align=left;verticalAlign=top;spacingLeft=4;spacingRight=4;whiteSpace=wrap;overflow=hidden;rotatable=0;points=[[0,0.5],[1,0.5]];portConstraint=eastwest;" parent="VR0u80_VKsv71wtrGtez-108" vertex="1">
          <mxGeometry y="364" width="220" height="26" as="geometry" />
        </mxCell>
        <mxCell id="VR0u80_VKsv71wtrGtez-124" value="postcode: VARCHAR(100)" style="text;html=1;strokeColor=none;fillColor=none;align=left;verticalAlign=top;spacingLeft=4;spacingRight=4;whiteSpace=wrap;overflow=hidden;rotatable=0;points=[[0,0.5],[1,0.5]];portConstraint=eastwest;" parent="VR0u80_VKsv71wtrGtez-108" vertex="1">
          <mxGeometry y="390" width="220" height="26" as="geometry" />
        </mxCell>
        <mxCell id="VR0u80_VKsv71wtrGtez-125" value="country: CHAR(2)" style="text;html=1;strokeColor=none;fillColor=none;align=left;verticalAlign=top;spacingLeft=4;spacingRight=4;whiteSpace=wrap;overflow=hidden;rotatable=0;points=[[0,0.5],[1,0.5]];portConstraint=eastwest;" parent="VR0u80_VKsv71wtrGtez-108" vertex="1">
          <mxGeometry y="416" width="220" height="26" as="geometry" />
        </mxCell>
        <mxCell id="VR0u80_VKsv71wtrGtez-134" value="role: VARCHAR(255)" style="text;html=1;strokeColor=none;fillColor=none;align=left;verticalAlign=top;spacingLeft=4;spacingRight=4;whiteSpace=wrap;overflow=hidden;rotatable=0;points=[[0,0.5],[1,0.5]];portConstraint=eastwest;" parent="VR0u80_VKsv71wtrGtez-108" vertex="1">
          <mxGeometry y="442" width="220" height="26" as="geometry" />
        </mxCell>
        <mxCell id="VR0u80_VKsv71wtrGtez-136" value="photo: VARCHAR(255)" style="text;html=1;strokeColor=none;fillColor=none;align=left;verticalAlign=top;spacingLeft=4;spacingRight=4;whiteSpace=wrap;overflow=hidden;rotatable=0;points=[[0,0.5],[1,0.5]];portConstraint=eastwest;" parent="VR0u80_VKsv71wtrGtez-108" vertex="1">
          <mxGeometry y="468" width="220" height="26" as="geometry" />
        </mxCell>
        <mxCell id="VR0u80_VKsv71wtrGtez-133" value="title: VARCHAR(100)" style="text;html=1;strokeColor=none;fillColor=none;align=left;verticalAlign=top;spacingLeft=4;spacingRight=4;whiteSpace=wrap;overflow=hidden;rotatable=0;points=[[0,0.5],[1,0.5]];portConstraint=eastwest;" parent="VR0u80_VKsv71wtrGtez-108" vertex="1">
          <mxGeometry y="494" width="220" height="26" as="geometry" />
        </mxCell>
        <mxCell id="VR0u80_VKsv71wtrGtez-137" value="birth_date: VARCHAR(100)" style="text;html=1;strokeColor=none;fillColor=none;align=left;verticalAlign=top;spacingLeft=4;spacingRight=4;whiteSpace=wrap;overflow=hidden;rotatable=0;points=[[0,0.5],[1,0.5]];portConstraint=eastwest;" parent="VR0u80_VKsv71wtrGtez-108" vertex="1">
          <mxGeometry y="520" width="220" height="26" as="geometry" />
        </mxCell>
        <mxCell id="VR0u80_VKsv71wtrGtez-153" value="suppliers" style="swimlane;html=1;fontStyle=1;align=center;verticalAlign=top;childLayout=stackLayout;horizontal=1;startSize=26;horizontalStack=0;resizeParent=1;resizeLast=0;collapsible=1;marginBottom=0;swimlaneFillColor=#ffffff;rounded=0;shadow=0;comic=0;labelBackgroundColor=none;strokeWidth=1;fillColor=none;fontFamily=Verdana;fontSize=12" parent="1" vertex="1">
          <mxGeometry x="530" y="400" width="220" height="528" as="geometry" />
        </mxCell>
        <mxCell id="VR0u80_VKsv71wtrGtez-154" value="id: BIGINT (20)" style="text;html=1;strokeColor=none;fillColor=none;align=left;verticalAlign=top;spacingLeft=4;spacingRight=4;whiteSpace=wrap;overflow=hidden;rotatable=0;points=[[0,0.5],[1,0.5]];portConstraint=eastwest;" parent="VR0u80_VKsv71wtrGtez-153" vertex="1">
          <mxGeometry y="26" width="220" height="26" as="geometry" />
        </mxCell>
        <mxCell id="VR0u80_VKsv71wtrGtez-155" value="user_id: BIGINT (20)" style="text;html=1;strokeColor=none;fillColor=none;align=left;verticalAlign=top;spacingLeft=4;spacingRight=4;whiteSpace=wrap;overflow=hidden;rotatable=0;points=[[0,0.5],[1,0.5]];portConstraint=eastwest;" parent="VR0u80_VKsv71wtrGtez-153" vertex="1">
          <mxGeometry y="52" width="220" height="26" as="geometry" />
        </mxCell>
        <mxCell id="VR0u80_VKsv71wtrGtez-156" value="email: VARCHAR(50)" style="text;html=1;strokeColor=none;fillColor=none;align=left;verticalAlign=top;spacingLeft=4;spacingRight=4;whiteSpace=wrap;overflow=hidden;rotatable=0;points=[[0,0.5],[1,0.5]];portConstraint=eastwest;" parent="VR0u80_VKsv71wtrGtez-153" vertex="1">
          <mxGeometry y="78" width="220" height="26" as="geometry" />
        </mxCell>
        <mxCell id="VR0u80_VKsv71wtrGtez-157" value="phone: VARCHAR (20)" style="text;html=1;strokeColor=none;fillColor=none;align=left;verticalAlign=top;spacingLeft=4;spacingRight=4;whiteSpace=wrap;overflow=hidden;rotatable=0;points=[[0,0.5],[1,0.5]];portConstraint=eastwest;" parent="VR0u80_VKsv71wtrGtez-153" vertex="1">
          <mxGeometry y="104" width="220" height="26" as="geometry" />
        </mxCell>
        <mxCell id="VR0u80_VKsv71wtrGtez-158" value="document_type_id: VARCHAR(12)" style="text;html=1;strokeColor=none;fillColor=none;align=left;verticalAlign=top;spacingLeft=4;spacingRight=4;whiteSpace=wrap;overflow=hidden;rotatable=0;points=[[0,0.5],[1,0.5]];portConstraint=eastwest;" parent="VR0u80_VKsv71wtrGtez-153" vertex="1">
          <mxGeometry y="130" width="220" height="26" as="geometry" />
        </mxCell>
        <mxCell id="VR0u80_VKsv71wtrGtez-159" value="document_id: BIGINT(20)" style="text;html=1;strokeColor=none;fillColor=none;align=left;verticalAlign=top;spacingLeft=4;spacingRight=4;whiteSpace=wrap;overflow=hidden;rotatable=0;points=[[0,0.5],[1,0.5]];portConstraint=eastwest;" parent="VR0u80_VKsv71wtrGtez-153" vertex="1">
          <mxGeometry y="156" width="220" height="26" as="geometry" />
        </mxCell>
        <mxCell id="VR0u80_VKsv71wtrGtez-160" value="registered: DATETIME" style="text;html=1;strokeColor=none;fillColor=none;align=left;verticalAlign=top;spacingLeft=4;spacingRight=4;whiteSpace=wrap;overflow=hidden;rotatable=0;points=[[0,0.5],[1,0.5]];portConstraint=eastwest;" parent="VR0u80_VKsv71wtrGtez-153" vertex="1">
          <mxGeometry y="182" width="220" height="26" as="geometry" />
        </mxCell>
        <mxCell id="VR0u80_VKsv71wtrGtez-161" value="modified: DATETIME" style="text;html=1;strokeColor=none;fillColor=none;align=left;verticalAlign=top;spacingLeft=4;spacingRight=4;whiteSpace=wrap;overflow=hidden;rotatable=0;points=[[0,0.5],[1,0.5]];portConstraint=eastwest;" parent="VR0u80_VKsv71wtrGtez-153" vertex="1">
          <mxGeometry y="208" width="220" height="26" as="geometry" />
        </mxCell>
        <mxCell id="VR0u80_VKsv71wtrGtez-162" value="first_name: VARCHAR(255)" style="text;html=1;strokeColor=none;fillColor=none;align=left;verticalAlign=top;spacingLeft=4;spacingRight=4;whiteSpace=wrap;overflow=hidden;rotatable=0;points=[[0,0.5],[1,0.5]];portConstraint=eastwest;" parent="VR0u80_VKsv71wtrGtez-153" vertex="1">
          <mxGeometry y="234" width="220" height="26" as="geometry" />
        </mxCell>
        <mxCell id="VR0u80_VKsv71wtrGtez-163" value="last_name: VARCHAR(255)" style="text;html=1;strokeColor=none;fillColor=none;align=left;verticalAlign=top;spacingLeft=4;spacingRight=4;whiteSpace=wrap;overflow=hidden;rotatable=0;points=[[0,0.5],[1,0.5]];portConstraint=eastwest;" parent="VR0u80_VKsv71wtrGtez-153" vertex="1">
          <mxGeometry y="260" width="220" height="26" as="geometry" />
        </mxCell>
        <mxCell id="VR0u80_VKsv71wtrGtez-164" value="company: VARCHAR(255)" style="text;html=1;strokeColor=none;fillColor=none;align=left;verticalAlign=top;spacingLeft=4;spacingRight=4;whiteSpace=wrap;overflow=hidden;rotatable=0;points=[[0,0.5],[1,0.5]];portConstraint=eastwest;" parent="VR0u80_VKsv71wtrGtez-153" vertex="1">
          <mxGeometry y="286" width="220" height="26" as="geometry" />
        </mxCell>
        <mxCell id="VR0u80_VKsv71wtrGtez-165" value="address_1: VARCHAR(1024)" style="text;html=1;strokeColor=none;fillColor=none;align=left;verticalAlign=top;spacingLeft=4;spacingRight=4;whiteSpace=wrap;overflow=hidden;rotatable=0;points=[[0,0.5],[1,0.5]];portConstraint=eastwest;" parent="VR0u80_VKsv71wtrGtez-153" vertex="1">
          <mxGeometry y="312" width="220" height="26" as="geometry" />
        </mxCell>
        <mxCell id="VR0u80_VKsv71wtrGtez-166" value="address_2: VARCHAR(1024)" style="text;html=1;strokeColor=none;fillColor=none;align=left;verticalAlign=top;spacingLeft=4;spacingRight=4;whiteSpace=wrap;overflow=hidden;rotatable=0;points=[[0,0.5],[1,0.5]];portConstraint=eastwest;" parent="VR0u80_VKsv71wtrGtez-153" vertex="1">
          <mxGeometry y="338" width="220" height="26" as="geometry" />
        </mxCell>
        <mxCell id="VR0u80_VKsv71wtrGtez-167" value="city: VARCHAR(100)" style="text;html=1;strokeColor=none;fillColor=none;align=left;verticalAlign=top;spacingLeft=4;spacingRight=4;whiteSpace=wrap;overflow=hidden;rotatable=0;points=[[0,0.5],[1,0.5]];portConstraint=eastwest;" parent="VR0u80_VKsv71wtrGtez-153" vertex="1">
          <mxGeometry y="364" width="220" height="26" as="geometry" />
        </mxCell>
        <mxCell id="VR0u80_VKsv71wtrGtez-168" value="state: VARCHAR(100)" style="text;html=1;strokeColor=none;fillColor=none;align=left;verticalAlign=top;spacingLeft=4;spacingRight=4;whiteSpace=wrap;overflow=hidden;rotatable=0;points=[[0,0.5],[1,0.5]];portConstraint=eastwest;" parent="VR0u80_VKsv71wtrGtez-153" vertex="1">
          <mxGeometry y="390" width="220" height="26" as="geometry" />
        </mxCell>
        <mxCell id="VR0u80_VKsv71wtrGtez-169" value="postcode: VARCHAR(100)" style="text;html=1;strokeColor=none;fillColor=none;align=left;verticalAlign=top;spacingLeft=4;spacingRight=4;whiteSpace=wrap;overflow=hidden;rotatable=0;points=[[0,0.5],[1,0.5]];portConstraint=eastwest;" parent="VR0u80_VKsv71wtrGtez-153" vertex="1">
          <mxGeometry y="416" width="220" height="26" as="geometry" />
        </mxCell>
        <mxCell id="VR0u80_VKsv71wtrGtez-170" value="country: CHAR(2)" style="text;html=1;strokeColor=none;fillColor=none;align=left;verticalAlign=top;spacingLeft=4;spacingRight=4;whiteSpace=wrap;overflow=hidden;rotatable=0;points=[[0,0.5],[1,0.5]];portConstraint=eastwest;" parent="VR0u80_VKsv71wtrGtez-153" vertex="1">
          <mxGeometry y="442" width="220" height="26" as="geometry" />
        </mxCell>
        <mxCell id="VR0u80_VKsv71wtrGtez-177" value="role: VARCHAR (255)" style="text;html=1;strokeColor=none;fillColor=none;align=left;verticalAlign=top;spacingLeft=4;spacingRight=4;whiteSpace=wrap;overflow=hidden;rotatable=0;points=[[0,0.5],[1,0.5]];portConstraint=eastwest;" parent="VR0u80_VKsv71wtrGtez-153" vertex="1">
          <mxGeometry y="468" width="220" height="26" as="geometry" />
        </mxCell>
        <mxCell id="VR0u80_VKsv71wtrGtez-178" value="photo: VARCHAR (255)" style="text;html=1;strokeColor=none;fillColor=none;align=left;verticalAlign=top;spacingLeft=4;spacingRight=4;whiteSpace=wrap;overflow=hidden;rotatable=0;points=[[0,0.5],[1,0.5]];portConstraint=eastwest;" parent="VR0u80_VKsv71wtrGtez-153" vertex="1">
          <mxGeometry y="494" width="220" height="26" as="geometry" />
        </mxCell>
        <mxCell id="VR0u80_VKsv71wtrGtez-181" value="referred" style="swimlane;html=1;fontStyle=1;align=center;verticalAlign=top;childLayout=stackLayout;horizontal=1;startSize=26;horizontalStack=0;resizeParent=1;resizeLast=0;collapsible=1;marginBottom=0;swimlaneFillColor=#ffffff;rounded=0;shadow=0;comic=0;labelBackgroundColor=none;strokeWidth=1;fillColor=none;fontFamily=Verdana;fontSize=12" parent="1" vertex="1">
          <mxGeometry x="770" y="400" width="220" height="528" as="geometry" />
        </mxCell>
        <mxCell id="VR0u80_VKsv71wtrGtez-182" value="id: BIGINT (20)" style="text;html=1;strokeColor=none;fillColor=none;align=left;verticalAlign=top;spacingLeft=4;spacingRight=4;whiteSpace=wrap;overflow=hidden;rotatable=0;points=[[0,0.5],[1,0.5]];portConstraint=eastwest;" parent="VR0u80_VKsv71wtrGtez-181" vertex="1">
          <mxGeometry y="26" width="220" height="26" as="geometry" />
        </mxCell>
        <mxCell id="VR0u80_VKsv71wtrGtez-183" value="user_id: BIGINT (20)" style="text;html=1;strokeColor=none;fillColor=none;align=left;verticalAlign=top;spacingLeft=4;spacingRight=4;whiteSpace=wrap;overflow=hidden;rotatable=0;points=[[0,0.5],[1,0.5]];portConstraint=eastwest;" parent="VR0u80_VKsv71wtrGtez-181" vertex="1">
          <mxGeometry y="52" width="220" height="26" as="geometry" />
        </mxCell>
        <mxCell id="VR0u80_VKsv71wtrGtez-184" value="email: VARCHAR(50)" style="text;html=1;strokeColor=none;fillColor=none;align=left;verticalAlign=top;spacingLeft=4;spacingRight=4;whiteSpace=wrap;overflow=hidden;rotatable=0;points=[[0,0.5],[1,0.5]];portConstraint=eastwest;" parent="VR0u80_VKsv71wtrGtez-181" vertex="1">
          <mxGeometry y="78" width="220" height="26" as="geometry" />
        </mxCell>
        <mxCell id="VR0u80_VKsv71wtrGtez-185" value="phone: VARCHAR (20)" style="text;html=1;strokeColor=none;fillColor=none;align=left;verticalAlign=top;spacingLeft=4;spacingRight=4;whiteSpace=wrap;overflow=hidden;rotatable=0;points=[[0,0.5],[1,0.5]];portConstraint=eastwest;" parent="VR0u80_VKsv71wtrGtez-181" vertex="1">
          <mxGeometry y="104" width="220" height="26" as="geometry" />
        </mxCell>
        <mxCell id="VR0u80_VKsv71wtrGtez-186" value="document_type_id: VARCHAR(12)" style="text;html=1;strokeColor=none;fillColor=none;align=left;verticalAlign=top;spacingLeft=4;spacingRight=4;whiteSpace=wrap;overflow=hidden;rotatable=0;points=[[0,0.5],[1,0.5]];portConstraint=eastwest;" parent="VR0u80_VKsv71wtrGtez-181" vertex="1">
          <mxGeometry y="130" width="220" height="26" as="geometry" />
        </mxCell>
        <mxCell id="VR0u80_VKsv71wtrGtez-187" value="document_id: BIGINT(20)" style="text;html=1;strokeColor=none;fillColor=none;align=left;verticalAlign=top;spacingLeft=4;spacingRight=4;whiteSpace=wrap;overflow=hidden;rotatable=0;points=[[0,0.5],[1,0.5]];portConstraint=eastwest;" parent="VR0u80_VKsv71wtrGtez-181" vertex="1">
          <mxGeometry y="156" width="220" height="26" as="geometry" />
        </mxCell>
        <mxCell id="VR0u80_VKsv71wtrGtez-188" value="registered: DATETIME" style="text;html=1;strokeColor=none;fillColor=none;align=left;verticalAlign=top;spacingLeft=4;spacingRight=4;whiteSpace=wrap;overflow=hidden;rotatable=0;points=[[0,0.5],[1,0.5]];portConstraint=eastwest;" parent="VR0u80_VKsv71wtrGtez-181" vertex="1">
          <mxGeometry y="182" width="220" height="26" as="geometry" />
        </mxCell>
        <mxCell id="VR0u80_VKsv71wtrGtez-189" value="modified: DATETIME" style="text;html=1;strokeColor=none;fillColor=none;align=left;verticalAlign=top;spacingLeft=4;spacingRight=4;whiteSpace=wrap;overflow=hidden;rotatable=0;points=[[0,0.5],[1,0.5]];portConstraint=eastwest;" parent="VR0u80_VKsv71wtrGtez-181" vertex="1">
          <mxGeometry y="208" width="220" height="26" as="geometry" />
        </mxCell>
        <mxCell id="VR0u80_VKsv71wtrGtez-190" value="first_name: VARCHAR(255)" style="text;html=1;strokeColor=none;fillColor=none;align=left;verticalAlign=top;spacingLeft=4;spacingRight=4;whiteSpace=wrap;overflow=hidden;rotatable=0;points=[[0,0.5],[1,0.5]];portConstraint=eastwest;" parent="VR0u80_VKsv71wtrGtez-181" vertex="1">
          <mxGeometry y="234" width="220" height="26" as="geometry" />
        </mxCell>
        <mxCell id="VR0u80_VKsv71wtrGtez-191" value="last_name: VARCHAR(255)" style="text;html=1;strokeColor=none;fillColor=none;align=left;verticalAlign=top;spacingLeft=4;spacingRight=4;whiteSpace=wrap;overflow=hidden;rotatable=0;points=[[0,0.5],[1,0.5]];portConstraint=eastwest;" parent="VR0u80_VKsv71wtrGtez-181" vertex="1">
          <mxGeometry y="260" width="220" height="26" as="geometry" />
        </mxCell>
        <mxCell id="VR0u80_VKsv71wtrGtez-192" value="company: VARCHAR(255)" style="text;html=1;strokeColor=none;fillColor=none;align=left;verticalAlign=top;spacingLeft=4;spacingRight=4;whiteSpace=wrap;overflow=hidden;rotatable=0;points=[[0,0.5],[1,0.5]];portConstraint=eastwest;" parent="VR0u80_VKsv71wtrGtez-181" vertex="1">
          <mxGeometry y="286" width="220" height="26" as="geometry" />
        </mxCell>
        <mxCell id="VR0u80_VKsv71wtrGtez-193" value="address_1: VARCHAR(1024)" style="text;html=1;strokeColor=none;fillColor=none;align=left;verticalAlign=top;spacingLeft=4;spacingRight=4;whiteSpace=wrap;overflow=hidden;rotatable=0;points=[[0,0.5],[1,0.5]];portConstraint=eastwest;" parent="VR0u80_VKsv71wtrGtez-181" vertex="1">
          <mxGeometry y="312" width="220" height="26" as="geometry" />
        </mxCell>
        <mxCell id="VR0u80_VKsv71wtrGtez-194" value="address_2: VARCHAR(1024)" style="text;html=1;strokeColor=none;fillColor=none;align=left;verticalAlign=top;spacingLeft=4;spacingRight=4;whiteSpace=wrap;overflow=hidden;rotatable=0;points=[[0,0.5],[1,0.5]];portConstraint=eastwest;" parent="VR0u80_VKsv71wtrGtez-181" vertex="1">
          <mxGeometry y="338" width="220" height="26" as="geometry" />
        </mxCell>
        <mxCell id="VR0u80_VKsv71wtrGtez-195" value="city: VARCHAR(100)" style="text;html=1;strokeColor=none;fillColor=none;align=left;verticalAlign=top;spacingLeft=4;spacingRight=4;whiteSpace=wrap;overflow=hidden;rotatable=0;points=[[0,0.5],[1,0.5]];portConstraint=eastwest;" parent="VR0u80_VKsv71wtrGtez-181" vertex="1">
          <mxGeometry y="364" width="220" height="26" as="geometry" />
        </mxCell>
        <mxCell id="VR0u80_VKsv71wtrGtez-196" value="state: VARCHAR(100)" style="text;html=1;strokeColor=none;fillColor=none;align=left;verticalAlign=top;spacingLeft=4;spacingRight=4;whiteSpace=wrap;overflow=hidden;rotatable=0;points=[[0,0.5],[1,0.5]];portConstraint=eastwest;" parent="VR0u80_VKsv71wtrGtez-181" vertex="1">
          <mxGeometry y="390" width="220" height="26" as="geometry" />
        </mxCell>
        <mxCell id="VR0u80_VKsv71wtrGtez-197" value="postcode: VARCHAR(100)" style="text;html=1;strokeColor=none;fillColor=none;align=left;verticalAlign=top;spacingLeft=4;spacingRight=4;whiteSpace=wrap;overflow=hidden;rotatable=0;points=[[0,0.5],[1,0.5]];portConstraint=eastwest;" parent="VR0u80_VKsv71wtrGtez-181" vertex="1">
          <mxGeometry y="416" width="220" height="26" as="geometry" />
        </mxCell>
        <mxCell id="VR0u80_VKsv71wtrGtez-198" value="country: CHAR(2)" style="text;html=1;strokeColor=none;fillColor=none;align=left;verticalAlign=top;spacingLeft=4;spacingRight=4;whiteSpace=wrap;overflow=hidden;rotatable=0;points=[[0,0.5],[1,0.5]];portConstraint=eastwest;" parent="VR0u80_VKsv71wtrGtez-181" vertex="1">
          <mxGeometry y="442" width="220" height="26" as="geometry" />
        </mxCell>
        <mxCell id="VR0u80_VKsv71wtrGtez-199" value="role: VARCHAR (255)" style="text;html=1;strokeColor=none;fillColor=none;align=left;verticalAlign=top;spacingLeft=4;spacingRight=4;whiteSpace=wrap;overflow=hidden;rotatable=0;points=[[0,0.5],[1,0.5]];portConstraint=eastwest;" parent="VR0u80_VKsv71wtrGtez-181" vertex="1">
          <mxGeometry y="468" width="220" height="26" as="geometry" />
        </mxCell>
        <mxCell id="VR0u80_VKsv71wtrGtez-200" value="photo: VARCHAR (255)" style="text;html=1;strokeColor=none;fillColor=none;align=left;verticalAlign=top;spacingLeft=4;spacingRight=4;whiteSpace=wrap;overflow=hidden;rotatable=0;points=[[0,0.5],[1,0.5]];portConstraint=eastwest;" parent="VR0u80_VKsv71wtrGtez-181" vertex="1">
          <mxGeometry y="494" width="220" height="26" as="geometry" />
        </mxCell>
        <mxCell id="VR0u80_VKsv71wtrGtez-204" value="orders" style="swimlane;html=1;fontStyle=1;align=center;verticalAlign=top;childLayout=stackLayout;horizontal=1;startSize=26;horizontalStack=0;resizeParent=1;resizeLast=0;collapsible=1;marginBottom=0;swimlaneFillColor=#ffffff;rounded=0;shadow=0;comic=0;labelBackgroundColor=none;strokeWidth=1;fillColor=none;fontFamily=Verdana;fontSize=12" parent="1" vertex="1">
          <mxGeometry x="1064" y="392" width="220" height="312" as="geometry" />
        </mxCell>
        <mxCell id="VR0u80_VKsv71wtrGtez-205" value="id: BIGINT (20)" style="text;html=1;strokeColor=none;fillColor=none;align=left;verticalAlign=top;spacingLeft=4;spacingRight=4;whiteSpace=wrap;overflow=hidden;rotatable=0;points=[[0,0.5],[1,0.5]];portConstraint=eastwest;" parent="VR0u80_VKsv71wtrGtez-204" vertex="1">
          <mxGeometry y="26" width="220" height="26" as="geometry" />
        </mxCell>
        <mxCell id="VR0u80_VKsv71wtrGtez-206" value="customer_id: BIGINT (20)" style="text;html=1;strokeColor=none;fillColor=none;align=left;verticalAlign=top;spacingLeft=4;spacingRight=4;whiteSpace=wrap;overflow=hidden;rotatable=0;points=[[0,0.5],[1,0.5]];portConstraint=eastwest;" parent="VR0u80_VKsv71wtrGtez-204" vertex="1">
          <mxGeometry y="52" width="220" height="26" as="geometry" />
        </mxCell>
        <mxCell id="VR0u80_VKsv71wtrGtez-239" value="author_id: BIGINT (20)" style="text;html=1;strokeColor=none;fillColor=none;align=left;verticalAlign=top;spacingLeft=4;spacingRight=4;whiteSpace=wrap;overflow=hidden;rotatable=0;points=[[0,0.5],[1,0.5]];portConstraint=eastwest;" parent="VR0u80_VKsv71wtrGtez-204" vertex="1">
          <mxGeometry y="78" width="220" height="26" as="geometry" />
        </mxCell>
        <mxCell id="VR0u80_VKsv71wtrGtez-249" value="referred_id: BIGINT (20)" style="text;html=1;strokeColor=none;fillColor=none;align=left;verticalAlign=top;spacingLeft=4;spacingRight=4;whiteSpace=wrap;overflow=hidden;rotatable=0;points=[[0,0.5],[1,0.5]];portConstraint=eastwest;" parent="VR0u80_VKsv71wtrGtez-204" vertex="1">
          <mxGeometry y="104" width="220" height="26" as="geometry" />
        </mxCell>
        <mxCell id="VR0u80_VKsv71wtrGtez-282" value="payment_id: BIGINT (20)" style="text;html=1;strokeColor=none;fillColor=none;align=left;verticalAlign=top;spacingLeft=4;spacingRight=4;whiteSpace=wrap;overflow=hidden;rotatable=0;points=[[0,0.5],[1,0.5]];portConstraint=eastwest;" parent="VR0u80_VKsv71wtrGtez-204" vertex="1">
          <mxGeometry y="130" width="220" height="26" as="geometry" />
        </mxCell>
        <mxCell id="VR0u80_VKsv71wtrGtez-211" value="registered: DATETIME" style="text;html=1;strokeColor=none;fillColor=none;align=left;verticalAlign=top;spacingLeft=4;spacingRight=4;whiteSpace=wrap;overflow=hidden;rotatable=0;points=[[0,0.5],[1,0.5]];portConstraint=eastwest;" parent="VR0u80_VKsv71wtrGtez-204" vertex="1">
          <mxGeometry y="156" width="220" height="26" as="geometry" />
        </mxCell>
        <mxCell id="VR0u80_VKsv71wtrGtez-212" value="modified: DATETIME" style="text;html=1;strokeColor=none;fillColor=none;align=left;verticalAlign=top;spacingLeft=4;spacingRight=4;whiteSpace=wrap;overflow=hidden;rotatable=0;points=[[0,0.5],[1,0.5]];portConstraint=eastwest;" parent="VR0u80_VKsv71wtrGtez-204" vertex="1">
          <mxGeometry y="182" width="220" height="26" as="geometry" />
        </mxCell>
        <mxCell id="VR0u80_VKsv71wtrGtez-252" value="notes: VARCHAR(1024)" style="text;html=1;strokeColor=none;fillColor=none;align=left;verticalAlign=top;spacingLeft=4;spacingRight=4;whiteSpace=wrap;overflow=hidden;rotatable=0;points=[[0,0.5],[1,0.5]];portConstraint=eastwest;" parent="VR0u80_VKsv71wtrGtez-204" vertex="1">
          <mxGeometry y="208" width="220" height="26" as="geometry" />
        </mxCell>
        <mxCell id="VR0u80_VKsv71wtrGtez-253" value="status: VARCHAR(20)" style="text;html=1;strokeColor=none;fillColor=none;align=left;verticalAlign=top;spacingLeft=4;spacingRight=4;whiteSpace=wrap;overflow=hidden;rotatable=0;points=[[0,0.5],[1,0.5]];portConstraint=eastwest;" parent="VR0u80_VKsv71wtrGtez-204" vertex="1">
          <mxGeometry y="234" width="220" height="26" as="geometry" />
        </mxCell>
        <mxCell id="VR0u80_VKsv71wtrGtez-254" value="total: decimal(20,2)" style="text;html=1;strokeColor=none;fillColor=none;align=left;verticalAlign=top;spacingLeft=4;spacingRight=4;whiteSpace=wrap;overflow=hidden;rotatable=0;points=[[0,0.5],[1,0.5]];portConstraint=eastwest;" parent="VR0u80_VKsv71wtrGtez-204" vertex="1">
          <mxGeometry y="260" width="220" height="26" as="geometry" />
        </mxCell>
        <mxCell id="VR0u80_VKsv71wtrGtez-256" value="refund_amount: decimal(20,2)" style="text;html=1;strokeColor=none;fillColor=none;align=left;verticalAlign=top;spacingLeft=4;spacingRight=4;whiteSpace=wrap;overflow=hidden;rotatable=0;points=[[0,0.5],[1,0.5]];portConstraint=eastwest;" parent="VR0u80_VKsv71wtrGtez-204" vertex="1">
          <mxGeometry y="286" width="220" height="26" as="geometry" />
        </mxCell>
        <mxCell id="VR0u80_VKsv71wtrGtez-233" value="" style="edgeStyle=elbowEdgeStyle;elbow=vertical;endArrow=ERone;html=1;rounded=0;entryX=0.5;entryY=0;entryDx=0;entryDy=0;endFill=0;startArrow=ERone;startFill=0;" parent="1" target="VR0u80_VKsv71wtrGtez-37" edge="1">
          <mxGeometry width="50" height="50" relative="1" as="geometry">
            <mxPoint x="320" y="288" as="sourcePoint" />
            <mxPoint x="650" y="232" as="targetPoint" />
            <Array as="points">
              <mxPoint x="216" y="320" />
            </Array>
          </mxGeometry>
        </mxCell>
        <mxCell id="VR0u80_VKsv71wtrGtez-234" value="" style="endArrow=ERone;html=1;rounded=0;startArrow=ERone;startFill=0;endFill=0;" parent="1" edge="1">
          <mxGeometry width="50" height="50" relative="1" as="geometry">
            <mxPoint x="352" y="288" as="sourcePoint" />
            <mxPoint x="352" y="400" as="targetPoint" />
            <Array as="points">
              <mxPoint x="352" y="344" />
            </Array>
          </mxGeometry>
        </mxCell>
        <mxCell id="VR0u80_VKsv71wtrGtez-235" value="" style="edgeStyle=elbowEdgeStyle;elbow=vertical;endArrow=ERone;html=1;rounded=0;entryX=0.5;entryY=0;entryDx=0;entryDy=0;startArrow=ERone;startFill=0;endFill=0;" parent="1" target="VR0u80_VKsv71wtrGtez-153" edge="1">
          <mxGeometry width="50" height="50" relative="1" as="geometry">
            <mxPoint x="384" y="288" as="sourcePoint" />
            <mxPoint x="530" y="320" as="targetPoint" />
          </mxGeometry>
        </mxCell>
        <mxCell id="VR0u80_VKsv71wtrGtez-236" value="" style="edgeStyle=elbowEdgeStyle;elbow=vertical;endArrow=ERone;html=1;rounded=0;entryX=0.426;entryY=-0.001;entryDx=0;entryDy=0;entryPerimeter=0;exitX=0.75;exitY=1;exitDx=0;exitDy=0;startArrow=ERone;startFill=0;endFill=0;" parent="1" source="VR0u80_VKsv71wtrGtez-1" target="VR0u80_VKsv71wtrGtez-181" edge="1">
          <mxGeometry width="50" height="50" relative="1" as="geometry">
            <mxPoint x="816" y="338" as="sourcePoint" />
            <mxPoint x="866" y="288" as="targetPoint" />
            <Array as="points">
              <mxPoint x="880" y="320" />
              <mxPoint x="792" y="320" />
            </Array>
          </mxGeometry>
        </mxCell>
        <mxCell id="VR0u80_VKsv71wtrGtez-238" value="" style="edgeStyle=elbowEdgeStyle;elbow=vertical;endArrow=ERmany;html=1;rounded=0;entryX=0.5;entryY=1;entryDx=0;entryDy=0;endFill=0;startArrow=ERone;startFill=0;" parent="1" target="VR0u80_VKsv71wtrGtez-204" edge="1">
          <mxGeometry width="50" height="50" relative="1" as="geometry">
            <mxPoint x="131" y="1078" as="sourcePoint" />
            <mxPoint x="1373" y="710" as="targetPoint" />
            <Array as="points">
              <mxPoint x="832" y="1088" />
              <mxPoint x="800" y="1126" />
            </Array>
          </mxGeometry>
        </mxCell>
        <mxCell id="VR0u80_VKsv71wtrGtez-241" value="" style="edgeStyle=elbowEdgeStyle;elbow=vertical;endArrow=ERmany;html=1;rounded=0;exitX=0.5;exitY=1;exitDx=0;exitDy=0;entryX=0.25;entryY=1;entryDx=0;entryDy=0;endFill=0;startArrow=ERone;startFill=0;" parent="1" source="VR0u80_VKsv71wtrGtez-108" target="VR0u80_VKsv71wtrGtez-204" edge="1">
          <mxGeometry width="50" height="50" relative="1" as="geometry">
            <mxPoint x="624" y="1362" as="sourcePoint" />
            <mxPoint x="674" y="1312" as="targetPoint" />
            <Array as="points">
              <mxPoint x="736" y="992" />
              <mxPoint x="896" y="1104" />
            </Array>
          </mxGeometry>
        </mxCell>
        <mxCell id="VR0u80_VKsv71wtrGtez-251" value="" style="endArrow=ERmany;html=1;rounded=0;endFill=0;startArrow=ERone;startFill=0;" parent="1" source="VR0u80_VKsv71wtrGtez-188" edge="1">
          <mxGeometry width="50" height="50" relative="1" as="geometry">
            <mxPoint x="992" y="602" as="sourcePoint" />
            <mxPoint x="1064" y="595" as="targetPoint" />
          </mxGeometry>
        </mxCell>
        <mxCell id="VR0u80_VKsv71wtrGtez-257" value="order_credit_payments" style="swimlane;html=1;fontStyle=1;align=center;verticalAlign=top;childLayout=stackLayout;horizontal=1;startSize=26;horizontalStack=0;resizeParent=1;resizeLast=0;collapsible=1;marginBottom=0;swimlaneFillColor=#ffffff;rounded=0;shadow=0;comic=0;labelBackgroundColor=none;strokeWidth=1;fillColor=none;fontFamily=Verdana;fontSize=12" parent="1" vertex="1">
          <mxGeometry x="1336" y="392" width="220" height="240" as="geometry" />
        </mxCell>
        <mxCell id="VR0u80_VKsv71wtrGtez-258" value="id: BIGINT (20)" style="text;html=1;strokeColor=none;fillColor=none;align=left;verticalAlign=top;spacingLeft=4;spacingRight=4;whiteSpace=wrap;overflow=hidden;rotatable=0;points=[[0,0.5],[1,0.5]];portConstraint=eastwest;" parent="VR0u80_VKsv71wtrGtez-257" vertex="1">
          <mxGeometry y="26" width="220" height="26" as="geometry" />
        </mxCell>
        <mxCell id="VR0u80_VKsv71wtrGtez-280" value="author_id: BIGINT (20)" style="text;html=1;strokeColor=none;fillColor=none;align=left;verticalAlign=top;spacingLeft=4;spacingRight=4;whiteSpace=wrap;overflow=hidden;rotatable=0;points=[[0,0.5],[1,0.5]];portConstraint=eastwest;" parent="VR0u80_VKsv71wtrGtez-257" vertex="1">
          <mxGeometry y="52" width="220" height="26" as="geometry" />
        </mxCell>
        <mxCell id="VR0u80_VKsv71wtrGtez-281" value="customer_id: BIGINT (20)" style="text;html=1;strokeColor=none;fillColor=none;align=left;verticalAlign=top;spacingLeft=4;spacingRight=4;whiteSpace=wrap;overflow=hidden;rotatable=0;points=[[0,0.5],[1,0.5]];portConstraint=eastwest;" parent="VR0u80_VKsv71wtrGtez-257" vertex="1">
          <mxGeometry y="78" width="220" height="26" as="geometry" />
        </mxCell>
        <mxCell id="VR0u80_VKsv71wtrGtez-264" value="registered: DATETIME" style="text;html=1;strokeColor=none;fillColor=none;align=left;verticalAlign=top;spacingLeft=4;spacingRight=4;whiteSpace=wrap;overflow=hidden;rotatable=0;points=[[0,0.5],[1,0.5]];portConstraint=eastwest;" parent="VR0u80_VKsv71wtrGtez-257" vertex="1">
          <mxGeometry y="104" width="220" height="26" as="geometry" />
        </mxCell>
        <mxCell id="VR0u80_VKsv71wtrGtez-265" value="modified: DATETIME" style="text;html=1;strokeColor=none;fillColor=none;align=left;verticalAlign=top;spacingLeft=4;spacingRight=4;whiteSpace=wrap;overflow=hidden;rotatable=0;points=[[0,0.5],[1,0.5]];portConstraint=eastwest;" parent="VR0u80_VKsv71wtrGtez-257" vertex="1">
          <mxGeometry y="130" width="220" height="26" as="geometry" />
        </mxCell>
        <mxCell id="VR0u80_VKsv71wtrGtez-278" value="status: VARCHAR(20)" style="text;html=1;strokeColor=none;fillColor=none;align=left;verticalAlign=top;spacingLeft=4;spacingRight=4;whiteSpace=wrap;overflow=hidden;rotatable=0;points=[[0,0.5],[1,0.5]];portConstraint=eastwest;" parent="VR0u80_VKsv71wtrGtez-257" vertex="1">
          <mxGeometry y="156" width="220" height="26" as="geometry" />
        </mxCell>
        <mxCell id="VR0u80_VKsv71wtrGtez-279" value="total: decimal(20,2)" style="text;html=1;strokeColor=none;fillColor=none;align=left;verticalAlign=top;spacingLeft=4;spacingRight=4;whiteSpace=wrap;overflow=hidden;rotatable=0;points=[[0,0.5],[1,0.5]];portConstraint=eastwest;" parent="VR0u80_VKsv71wtrGtez-257" vertex="1">
          <mxGeometry y="182" width="220" height="26" as="geometry" />
        </mxCell>
        <mxCell id="VR0u80_VKsv71wtrGtez-284" value="notes: VARCHAR(1024)" style="text;html=1;strokeColor=none;fillColor=none;align=left;verticalAlign=top;spacingLeft=4;spacingRight=4;whiteSpace=wrap;overflow=hidden;rotatable=0;points=[[0,0.5],[1,0.5]];portConstraint=eastwest;" parent="VR0u80_VKsv71wtrGtez-257" vertex="1">
          <mxGeometry y="208" width="220" height="26" as="geometry" />
        </mxCell>
        <mxCell id="VR0u80_VKsv71wtrGtez-283" value="" style="endArrow=ERmany;html=1;rounded=0;endFill=0;entryX=1.001;entryY=-0.022;entryDx=0;entryDy=0;entryPerimeter=0;exitX=-0.001;exitY=0.002;exitDx=0;exitDy=0;exitPerimeter=0;startArrow=ERone;startFill=0;" parent="1" source="VR0u80_VKsv71wtrGtez-279" target="VR0u80_VKsv71wtrGtez-212" edge="1">
          <mxGeometry width="50" height="50" relative="1" as="geometry">
            <mxPoint x="1392" y="573" as="sourcePoint" />
            <mxPoint x="1288" y="574" as="targetPoint" />
          </mxGeometry>
        </mxCell>
        <mxCell id="VR0u80_VKsv71wtrGtez-285" value="" style="edgeStyle=elbowEdgeStyle;elbow=vertical;endArrow=ERmany;html=1;rounded=0;entryX=0.173;entryY=1.308;entryDx=0;entryDy=0;endFill=0;entryPerimeter=0;startArrow=ERmany;startFill=0;" parent="1" target="VR0u80_VKsv71wtrGtez-284" edge="1">
          <mxGeometry width="50" height="50" relative="1" as="geometry">
            <mxPoint x="368" y="952" as="sourcePoint" />
            <mxPoint x="1127" y="712" as="targetPoint" />
            <Array as="points">
              <mxPoint x="1280" y="1016" />
              <mxPoint x="744" y="1000" />
              <mxPoint x="904" y="1112" />
            </Array>
          </mxGeometry>
        </mxCell>
        <mxCell id="VR0u80_VKsv71wtrGtez-286" value="" style="edgeStyle=elbowEdgeStyle;elbow=vertical;endArrow=ERmany;html=1;rounded=0;entryX=0.336;entryY=1.308;entryDx=0;entryDy=0;endFill=0;entryPerimeter=0;exitX=0.318;exitY=1;exitDx=0;exitDy=0;exitPerimeter=0;startArrow=ERmany;startFill=0;" parent="1" source="VR0u80_VKsv71wtrGtez-135" target="VR0u80_VKsv71wtrGtez-284" edge="1">
          <mxGeometry width="50" height="50" relative="1" as="geometry">
            <mxPoint x="139" y="1086" as="sourcePoint" />
            <mxPoint x="1182" y="712" as="targetPoint" />
            <Array as="points">
              <mxPoint x="768" y="1104" />
              <mxPoint x="808" y="1134" />
            </Array>
          </mxGeometry>
        </mxCell>
        <mxCell id="i--I7VEVkHYuIXu8u2YN-1" value="products" style="swimlane;html=1;fontStyle=1;align=center;verticalAlign=top;childLayout=stackLayout;horizontal=1;startSize=26;horizontalStack=0;resizeParent=1;resizeLast=0;collapsible=1;marginBottom=0;swimlaneFillColor=#ffffff;rounded=0;shadow=0;comic=0;labelBackgroundColor=none;strokeWidth=1;fillColor=none;fontFamily=Verdana;fontSize=12" vertex="1" parent="1">
          <mxGeometry x="1600" y="392" width="220" height="702" as="geometry" />
        </mxCell>
        <mxCell id="i--I7VEVkHYuIXu8u2YN-2" value="id: BIGINT (20)" style="text;html=1;strokeColor=none;fillColor=none;align=left;verticalAlign=top;spacingLeft=4;spacingRight=4;whiteSpace=wrap;overflow=hidden;rotatable=0;points=[[0,0.5],[1,0.5]];portConstraint=eastwest;" vertex="1" parent="i--I7VEVkHYuIXu8u2YN-1">
          <mxGeometry y="26" width="220" height="26" as="geometry" />
        </mxCell>
        <mxCell id="i--I7VEVkHYuIXu8u2YN-13" value="category_id: BIGINT (20)" style="text;html=1;strokeColor=none;fillColor=none;align=left;verticalAlign=top;spacingLeft=4;spacingRight=4;whiteSpace=wrap;overflow=hidden;rotatable=0;points=[[0,0.5],[1,0.5]];portConstraint=eastwest;" vertex="1" parent="i--I7VEVkHYuIXu8u2YN-1">
          <mxGeometry y="52" width="220" height="26" as="geometry" />
        </mxCell>
        <mxCell id="i--I7VEVkHYuIXu8u2YN-21" value="project_id: BIGINT (20)" style="text;html=1;strokeColor=none;fillColor=none;align=left;verticalAlign=top;spacingLeft=4;spacingRight=4;whiteSpace=wrap;overflow=hidden;rotatable=0;points=[[0,0.5],[1,0.5]];portConstraint=eastwest;" vertex="1" parent="i--I7VEVkHYuIXu8u2YN-1">
          <mxGeometry y="78" width="220" height="26" as="geometry" />
        </mxCell>
        <mxCell id="i--I7VEVkHYuIXu8u2YN-7" value="registered: DATETIME" style="text;html=1;strokeColor=none;fillColor=none;align=left;verticalAlign=top;spacingLeft=4;spacingRight=4;whiteSpace=wrap;overflow=hidden;rotatable=0;points=[[0,0.5],[1,0.5]];portConstraint=eastwest;" vertex="1" parent="i--I7VEVkHYuIXu8u2YN-1">
          <mxGeometry y="104" width="220" height="26" as="geometry" />
        </mxCell>
        <mxCell id="i--I7VEVkHYuIXu8u2YN-8" value="modified: DATETIME" style="text;html=1;strokeColor=none;fillColor=none;align=left;verticalAlign=top;spacingLeft=4;spacingRight=4;whiteSpace=wrap;overflow=hidden;rotatable=0;points=[[0,0.5],[1,0.5]];portConstraint=eastwest;" vertex="1" parent="i--I7VEVkHYuIXu8u2YN-1">
          <mxGeometry y="130" width="220" height="26" as="geometry" />
        </mxCell>
        <mxCell id="i--I7VEVkHYuIXu8u2YN-9" value="notes: VARCHAR(1024)" style="text;html=1;strokeColor=none;fillColor=none;align=left;verticalAlign=top;spacingLeft=4;spacingRight=4;whiteSpace=wrap;overflow=hidden;rotatable=0;points=[[0,0.5],[1,0.5]];portConstraint=eastwest;" vertex="1" parent="i--I7VEVkHYuIXu8u2YN-1">
          <mxGeometry y="156" width="220" height="26" as="geometry" />
        </mxCell>
        <mxCell id="i--I7VEVkHYuIXu8u2YN-10" value="status: VARCHAR(20)" style="text;html=1;strokeColor=none;fillColor=none;align=left;verticalAlign=top;spacingLeft=4;spacingRight=4;whiteSpace=wrap;overflow=hidden;rotatable=0;points=[[0,0.5],[1,0.5]];portConstraint=eastwest;" vertex="1" parent="i--I7VEVkHYuIXu8u2YN-1">
          <mxGeometry y="182" width="220" height="26" as="geometry" />
        </mxCell>
        <mxCell id="i--I7VEVkHYuIXu8u2YN-11" value="SKU: VARCHAR(255)" style="text;html=1;strokeColor=none;fillColor=none;align=left;verticalAlign=top;spacingLeft=4;spacingRight=4;whiteSpace=wrap;overflow=hidden;rotatable=0;points=[[0,0.5],[1,0.5]];portConstraint=eastwest;" vertex="1" parent="i--I7VEVkHYuIXu8u2YN-1">
          <mxGeometry y="208" width="220" height="26" as="geometry" />
        </mxCell>
        <mxCell id="i--I7VEVkHYuIXu8u2YN-14" value="image: URL" style="text;html=1;strokeColor=none;fillColor=none;align=left;verticalAlign=top;spacingLeft=4;spacingRight=4;whiteSpace=wrap;overflow=hidden;rotatable=0;points=[[0,0.5],[1,0.5]];portConstraint=eastwest;" vertex="1" parent="i--I7VEVkHYuIXu8u2YN-1">
          <mxGeometry y="234" width="220" height="26" as="geometry" />
        </mxCell>
        <mxCell id="i--I7VEVkHYuIXu8u2YN-15" value="gallety_image: JSON" style="text;html=1;strokeColor=none;fillColor=none;align=left;verticalAlign=top;spacingLeft=4;spacingRight=4;whiteSpace=wrap;overflow=hidden;rotatable=0;points=[[0,0.5],[1,0.5]];portConstraint=eastwest;" vertex="1" parent="i--I7VEVkHYuIXu8u2YN-1">
          <mxGeometry y="260" width="220" height="26" as="geometry" />
        </mxCell>
        <mxCell id="i--I7VEVkHYuIXu8u2YN-16" value="name: VARCHAR(255)" style="text;html=1;strokeColor=none;fillColor=none;align=left;verticalAlign=top;spacingLeft=4;spacingRight=4;whiteSpace=wrap;overflow=hidden;rotatable=0;points=[[0,0.5],[1,0.5]];portConstraint=eastwest;" vertex="1" parent="i--I7VEVkHYuIXu8u2YN-1">
          <mxGeometry y="286" width="220" height="26" as="geometry" />
        </mxCell>
        <mxCell id="i--I7VEVkHYuIXu8u2YN-17" value="description_short: VARCHAR(1024)" style="text;html=1;strokeColor=none;fillColor=none;align=left;verticalAlign=top;spacingLeft=4;spacingRight=4;whiteSpace=wrap;overflow=hidden;rotatable=0;points=[[0,0.5],[1,0.5]];portConstraint=eastwest;" vertex="1" parent="i--I7VEVkHYuIXu8u2YN-1">
          <mxGeometry y="312" width="220" height="26" as="geometry" />
        </mxCell>
        <mxCell id="i--I7VEVkHYuIXu8u2YN-18" value="description: VARCHAR(8000)" style="text;html=1;strokeColor=none;fillColor=none;align=left;verticalAlign=top;spacingLeft=4;spacingRight=4;whiteSpace=wrap;overflow=hidden;rotatable=0;points=[[0,0.5],[1,0.5]];portConstraint=eastwest;" vertex="1" parent="i--I7VEVkHYuIXu8u2YN-1">
          <mxGeometry y="338" width="220" height="26" as="geometry" />
        </mxCell>
        <mxCell id="i--I7VEVkHYuIXu8u2YN-19" value="sales_price: DECIMAL(20,2)" style="text;html=1;strokeColor=none;fillColor=none;align=left;verticalAlign=top;spacingLeft=4;spacingRight=4;whiteSpace=wrap;overflow=hidden;rotatable=0;points=[[0,0.5],[1,0.5]];portConstraint=eastwest;" vertex="1" parent="i--I7VEVkHYuIXu8u2YN-1">
          <mxGeometry y="364" width="220" height="26" as="geometry" />
        </mxCell>
        <mxCell id="i--I7VEVkHYuIXu8u2YN-20" value="offer_price: DECIMAL(20,2)" style="text;html=1;strokeColor=none;fillColor=none;align=left;verticalAlign=top;spacingLeft=4;spacingRight=4;whiteSpace=wrap;overflow=hidden;rotatable=0;points=[[0,0.5],[1,0.5]];portConstraint=eastwest;" vertex="1" parent="i--I7VEVkHYuIXu8u2YN-1">
          <mxGeometry y="390" width="220" height="26" as="geometry" />
        </mxCell>
        <mxCell id="i--I7VEVkHYuIXu8u2YN-22" value="cost: DECIMAL(20,2)" style="text;html=1;strokeColor=none;fillColor=none;align=left;verticalAlign=top;spacingLeft=4;spacingRight=4;whiteSpace=wrap;overflow=hidden;rotatable=0;points=[[0,0.5],[1,0.5]];portConstraint=eastwest;" vertex="1" parent="i--I7VEVkHYuIXu8u2YN-1">
          <mxGeometry y="416" width="220" height="26" as="geometry" />
        </mxCell>
        <mxCell id="i--I7VEVkHYuIXu8u2YN-23" value="type: VARCHAR(20)" style="text;html=1;strokeColor=none;fillColor=none;align=left;verticalAlign=top;spacingLeft=4;spacingRight=4;whiteSpace=wrap;overflow=hidden;rotatable=0;points=[[0,0.5],[1,0.5]];portConstraint=eastwest;" vertex="1" parent="i--I7VEVkHYuIXu8u2YN-1">
          <mxGeometry y="442" width="220" height="26" as="geometry" />
        </mxCell>
        <mxCell id="i--I7VEVkHYuIXu8u2YN-24" value="visibility_catalog: BOOLEAN" style="text;html=1;strokeColor=none;fillColor=none;align=left;verticalAlign=top;spacingLeft=4;spacingRight=4;whiteSpace=wrap;overflow=hidden;rotatable=0;points=[[0,0.5],[1,0.5]];portConstraint=eastwest;" vertex="1" parent="i--I7VEVkHYuIXu8u2YN-1">
          <mxGeometry y="468" width="220" height="26" as="geometry" />
        </mxCell>
        <mxCell id="i--I7VEVkHYuIXu8u2YN-25" value="tax_status: VARCHAR(20)" style="text;html=1;strokeColor=none;fillColor=none;align=left;verticalAlign=top;spacingLeft=4;spacingRight=4;whiteSpace=wrap;overflow=hidden;rotatable=0;points=[[0,0.5],[1,0.5]];portConstraint=eastwest;" vertex="1" parent="i--I7VEVkHYuIXu8u2YN-1">
          <mxGeometry y="494" width="220" height="26" as="geometry" />
        </mxCell>
        <mxCell id="i--I7VEVkHYuIXu8u2YN-26" value="tax_class: VARCHAR(20)" style="text;html=1;strokeColor=none;fillColor=none;align=left;verticalAlign=top;spacingLeft=4;spacingRight=4;whiteSpace=wrap;overflow=hidden;rotatable=0;points=[[0,0.5],[1,0.5]];portConstraint=eastwest;" vertex="1" parent="i--I7VEVkHYuIXu8u2YN-1">
          <mxGeometry y="520" width="220" height="26" as="geometry" />
        </mxCell>
        <mxCell id="i--I7VEVkHYuIXu8u2YN-27" value="shipping_class: VARCHAR(20)" style="text;html=1;strokeColor=none;fillColor=none;align=left;verticalAlign=top;spacingLeft=4;spacingRight=4;whiteSpace=wrap;overflow=hidden;rotatable=0;points=[[0,0.5],[1,0.5]];portConstraint=eastwest;" vertex="1" parent="i--I7VEVkHYuIXu8u2YN-1">
          <mxGeometry y="546" width="220" height="26" as="geometry" />
        </mxCell>
        <mxCell id="i--I7VEVkHYuIXu8u2YN-28" value="package_type: VARCHAR(20)" style="text;html=1;strokeColor=none;fillColor=none;align=left;verticalAlign=top;spacingLeft=4;spacingRight=4;whiteSpace=wrap;overflow=hidden;rotatable=0;points=[[0,0.5],[1,0.5]];portConstraint=eastwest;" vertex="1" parent="i--I7VEVkHYuIXu8u2YN-1">
          <mxGeometry y="572" width="220" height="26" as="geometry" />
        </mxCell>
        <mxCell id="i--I7VEVkHYuIXu8u2YN-29" value="qty_pack: INT(10)" style="text;html=1;strokeColor=none;fillColor=none;align=left;verticalAlign=top;spacingLeft=4;spacingRight=4;whiteSpace=wrap;overflow=hidden;rotatable=0;points=[[0,0.5],[1,0.5]];portConstraint=eastwest;" vertex="1" parent="i--I7VEVkHYuIXu8u2YN-1">
          <mxGeometry y="598" width="220" height="26" as="geometry" />
        </mxCell>
        <mxCell id="i--I7VEVkHYuIXu8u2YN-30" value="und_cbm: DECIMAL(10,3)" style="text;html=1;strokeColor=none;fillColor=none;align=left;verticalAlign=top;spacingLeft=4;spacingRight=4;whiteSpace=wrap;overflow=hidden;rotatable=0;points=[[0,0.5],[1,0.5]];portConstraint=eastwest;" vertex="1" parent="i--I7VEVkHYuIXu8u2YN-1">
          <mxGeometry y="624" width="220" height="26" as="geometry" />
        </mxCell>
        <mxCell id="i--I7VEVkHYuIXu8u2YN-31" value="attributes: JSON" style="text;html=1;strokeColor=none;fillColor=none;align=left;verticalAlign=top;spacingLeft=4;spacingRight=4;whiteSpace=wrap;overflow=hidden;rotatable=0;points=[[0,0.5],[1,0.5]];portConstraint=eastwest;" vertex="1" parent="i--I7VEVkHYuIXu8u2YN-1">
          <mxGeometry y="650" width="220" height="26" as="geometry" />
        </mxCell>
        <mxCell id="i--I7VEVkHYuIXu8u2YN-32" value="statistics: JSON" style="text;html=1;strokeColor=none;fillColor=none;align=left;verticalAlign=top;spacingLeft=4;spacingRight=4;whiteSpace=wrap;overflow=hidden;rotatable=0;points=[[0,0.5],[1,0.5]];portConstraint=eastwest;" vertex="1" parent="i--I7VEVkHYuIXu8u2YN-1">
          <mxGeometry y="676" width="220" height="26" as="geometry" />
        </mxCell>
      </root>
    </mxGraphModel>
  </diagram>
</mxfile>
